<svg width="80" height="80" viewBox="0 0 80 80" fill="none" xmlns="http://www.w3.org/2000/svg">
<rect width="80" height="80" rx="20" fill="#CADFFF"/>
<path d="M26.459 32.3927C15.6314 28.8502 7.70973 23.2403 8.50753 19.7405C8.21442 20.6276 7.49621 22.7958 7.16428 23.8091C6.0229 27.2934 14.0378 33.0449 25.0653 36.6535C36.0928 40.262 45.9557 40.363 47.0951 36.8767L48.4888 32.6159C47.3474 36.1003 37.4846 36.0013 26.459 32.3927Z" fill="#5F8AD6"/>
<path d="M30.5897 19.7735C19.7777 16.2349 10.0856 16.0699 8.63563 19.3504C8.63563 19.3504 8.63563 19.3523 8.63563 19.3542C8.63174 19.3678 8.58322 19.5095 8.50751 19.7425C7.71165 23.2442 15.6334 28.8521 26.459 32.3947C37.2846 35.9372 47.3494 36.1042 48.4888 32.6179C49.6302 29.1336 41.6153 23.3821 30.5878 19.7735H30.5897Z" fill="#E6EEFF"/>
<path d="M26.9811 26.9888L25.929 27.146L25.3292 26.6646L26.2066 26.5345L22.1827 24.1955L22.9242 24.0848L26.9171 26.4297L28.5146 26.191L26.3056 23.5801L27.1403 23.4559L31.1332 25.8008L32.7307 25.562L30.5217 22.9512L31.2632 22.8406L33.4315 25.4572L34.3186 25.3252L34.9184 25.8066L33.8566 25.9658L36.0248 28.5824L35.2523 28.6989L31.2283 26.3598L29.6191 26.6005L31.7874 29.2172L31.0031 29.3336L26.9792 26.9946L26.9811 26.9888ZM30.3548 28.4543L30.4169 28.4446L28.9417 26.6956L27.6838 26.8839L30.3548 28.4543ZM30.4538 25.8998L27.8469 24.3915L27.7945 24.3993L29.196 26.0881L30.4538 25.8998ZM34.5826 27.8234L34.6447 27.8137L33.1694 26.0648L31.9116 26.2531L34.5826 27.8234Z" fill="#84A1D3"/>
<path d="M62.4125 51.6701C55.3118 55.201 48.6441 56.29 47.328 54.1644C47.6153 54.7468 48.3199 56.1735 48.6499 56.8374C49.7874 59.1221 56.5697 58.0603 63.8023 54.4634C71.033 50.8665 75.9731 46.0991 74.8376 43.8124L73.4477 41.0192C74.5852 43.3039 69.6431 48.0732 62.4125 51.6701Z" fill="#5F8AD6"/>
<path d="M58.2973 43.3931C51.2064 46.9201 46.3186 51.573 47.2038 53.9082C47.2038 53.9082 47.2038 53.9082 47.2038 53.9101C47.2077 53.9179 47.2543 54.013 47.33 54.1644C48.6461 56.2899 55.3138 55.201 62.4144 51.6701C69.6451 48.0732 74.5853 43.3058 73.4497 41.0191C72.3142 38.7325 65.5299 39.7962 58.2973 43.3931Z" fill="#E6EEFF"/>
<path d="M60.3685 45.1653L60.6927 44.4995L61.2051 44.3442L60.9353 44.8994L63.8625 43.5095L63.6335 43.9793L60.716 45.3497L60.2249 46.361L62.593 46.1203L62.3368 46.6483L59.4193 48.0187L58.9282 49.0301L61.2964 48.7894L61.0673 49.2591L58.7108 49.4746L58.4371 50.0356L57.9246 50.1909L58.2507 49.5192L55.8942 49.7347L56.133 49.2455L59.0602 47.8557L59.5552 46.8366L57.1987 47.0521L57.4394 46.5551L60.3666 45.1653H60.3685ZM58.2003 46.526L58.1809 46.5648L59.7668 46.4057L60.153 45.6098L58.2003 46.526ZM59.627 47.5878L61.5196 46.6852L61.5351 46.6522L60.0133 46.792L59.627 47.5878ZM56.8997 49.2009L56.8803 49.2397L58.4662 49.0805L58.8525 48.2847L56.8997 49.2009Z" fill="#84A1D3"/>
<path d="M25.4703 64.9416C18.9423 60.4382 14.7631 55.1292 15.986 52.9513C15.6152 53.4851 14.7087 54.7915 14.2856 55.4029C12.8356 57.5032 17.0497 62.9248 23.6981 67.5116C30.3464 72.0985 36.9093 74.1134 38.3594 72.0112L40.1316 69.4431C38.6816 71.5434 32.1187 69.5285 25.4703 64.9435V64.9416Z" fill="#E6EEFF"/>
<path d="M30.7191 57.3324C24.2008 52.8348 17.764 50.8102 16.149 52.7145C16.1432 52.7222 16.083 52.8076 15.986 52.9474C14.7631 55.1273 18.9423 60.4343 25.4703 64.9377C32.1186 69.5246 38.6816 71.5395 40.1316 69.4372C41.5816 67.3369 37.3674 61.9154 30.7191 57.3285V57.3324Z" fill="#5F8AD6"/>
<path d="M41 15C47.3333 16.3333 59.8 21.4 59 31C60.1667 29.8333 63.3 28 66.5 30" stroke="#F5F8FF" stroke-width="1.5" stroke-linecap="round"/>
<path d="M12 45C13 45.8333 15 48.1 15 50.5" stroke="#F5F8FF" stroke-linecap="round"/>
<path d="M18.3063 45C18.6284 45.9789 19.0209 48.3396 18.0145 49.9512" stroke="#F5F8FF" stroke-linecap="round"/>
<path d="M12 20C11.8334 21.1667 13.1 24.2 19.5 27" stroke="#F5F8FF" stroke-linecap="round"/>
<path d="M71 42C70.6667 43.1667 69.1 46 65.5 48M63.5 49.5L61.5 50.5" stroke="#F5F8FF" stroke-linecap="round"/>
</svg>
