<svg width="33" height="28" viewBox="0 0 33 28" fill="#DC5B5B" xmlns="http://www.w3.org/2000/svg">
<path d="M16.5048 27.4091L3.36275 14.267C2.31445 13.2188 1.61559 12 1.26616 10.6108C0.925249 9.22159 0.92951 7.84091 1.27894 6.46875C1.62837 5.08807 2.32298 3.88636 3.36275 2.86364C4.42809 1.81534 5.64258 1.12074 7.00621 0.77983C8.37837 0.430397 9.74627 0.430397 11.1099 0.77983C12.4821 1.12926 13.7008 1.82386 14.7662 2.86364L16.5048 4.55114L18.2434 2.86364C19.3173 1.82386 20.536 1.12926 21.8997 0.77983C23.2633 0.430397 24.627 0.430397 25.9906 0.77983C27.3627 1.12074 28.5815 1.81534 29.6468 2.86364C30.6866 3.88636 31.3812 5.08807 31.7306 6.46875C32.0801 7.84091 32.0801 9.22159 31.7306 10.6108C31.3897 12 30.6951 13.2188 29.6468 14.267L16.5048 27.4091Z" />
</svg>
