<svg width="80" height="80" viewBox="0 0 80 80" fill="none" xmlns="http://www.w3.org/2000/svg">
<rect width="80" height="80" rx="20" fill="#CADFFF"/>
<path d="M58 16C59.1667 16.3333 61.5 16.3 61.5 13.5C61.5 10.7 63.5 10 64.5 10" stroke="#F5F8FF" stroke-width="3" stroke-linecap="square"/>
<path d="M6.06681 23.5612C6.29989 24.3412 7.09147 25.719 8.3931 24.9905C9.69473 24.2619 10.6853 25.2682 11.018 25.8624" stroke="#F5F8FF" stroke-linecap="square"/>
<rect x="15.0017" y="9" width="6" height="3" transform="rotate(41.8547 15.0017 9)" fill="#A2BCEA"/>
<rect x="26.2469" y="63.7947" width="9.2655" height="4.63275" transform="rotate(144.994 26.2469 63.7947)" fill="#A2BCEA"/>
<rect x="65.6044" y="17" width="6" height="3" transform="rotate(11.6234 65.6044 17)" fill="#A2BCEA"/>
<rect x="14.3476" y="17" width="3.72889" height="1.72515" transform="rotate(11.6234 14.3476 17)" fill="#3160D8"/>
<rect x="69.3476" y="20" width="3.72889" height="1.72515" transform="rotate(11.6234 69.3476 20)" fill="#3160D8"/>
<path d="M41.5 71C58.3447 71 72 57.3447 72 40.5C72 23.6553 58.3447 10 41.5 10C24.6553 10 11 23.6553 11 40.5C11 57.3447 24.6553 71 41.5 71Z" fill="#3160D8"/>
<path d="M41.5001 69.5652C57.5524 69.5652 70.5654 56.5522 70.5654 40.4999C70.5654 24.4476 57.5524 11.4346 41.5001 11.4346C25.4477 11.4346 12.4348 24.4476 12.4348 40.4999C12.4348 56.5522 25.4477 69.5652 41.5001 69.5652Z" fill="white"/>
<path d="M41.5001 69.567C25.4477 69.567 12.4348 56.5541 12.4348 40.5017C12.4348 24.4493 25.4477 11.4364 41.5001 11.4364V69.5687V69.567Z" fill="#EBEBEB"/>
<path d="M41.5 16.5395L38.0643 10.5911H44.934L41.5 16.5395Z" fill="#3160D8"/>
<circle cx="41.5429" cy="40.5428" r="3.79723" fill="#3160D8"/>
<circle cx="41.5429" cy="40.5429" r="4.62271" fill="#3160D8" fill-opacity="0.47"/>
<rect x="63.0017" y="66" width="6" height="3" transform="rotate(41.8547 63.0017 66)" fill="#F5F8FF"/>
<rect x="13.8347" y="59.8267" width="3.99331" height="2.7687" transform="rotate(107.371 13.8347 59.8267)" fill="#F5F8FF"/>
</svg>
