<svg width="80" height="80" viewBox="0 0 80 80" fill="none" xmlns="http://www.w3.org/2000/svg">
<rect width="80" height="80" rx="20" fill="#CADFFF"/>
<path d="M62.6245 44H25.907C21.0082 44 17.0001 48.0081 17.0001 52.9069V56.7902C17.0001 61.689 21.0082 65.6971 25.907 65.6971H59.0313L63.9268 69.9549L64.8073 65.4239C68.6603 64.4421 71.5314 60.9367 71.5314 56.7902V52.9069C71.5314 48.0081 67.5233 44 62.6245 44Z" fill="#F3F7FF"/>
<path d="M15.9495 18.585L48.7203 10.8712C53.0926 9.84204 57.519 12.6076 58.5569 17.017L59.3797 20.5122C60.4176 24.9216 57.6895 29.3712 53.3172 30.4004L23.7534 37.3593L20.2862 42.2201L18.5403 38.3268C14.8935 38.2525 11.5883 35.7006 10.7098 31.9684L9.88708 28.4732C8.84919 24.0638 11.5773 19.6142 15.9495 18.585Z" fill="#F3F7FF"/>
<path d="M54.0428 28.7755C54.0428 32.9118 51.3876 37.173 49.4476 40.6582C48.26 42.7972 45.0009 47.5138 42.3929 51.2554C40.7296 53.6441 39.7445 53.3775 38.1183 51.2689C35.2033 47.4936 33.0474 44.059 30.7903 40.3747C28.8976 37.2877 26.4886 32.6824 26.4886 28.7755C26.4886 21.1675 32.656 15.0001 40.264 15.0001C47.872 15.0001 54.0394 21.1675 54.0394 28.7755H54.0428Z" fill="#3160D8"/>
<path d="M40.2674 37.9018C45.3375 37.9018 49.4476 33.7917 49.4476 28.7216C49.4476 23.6515 45.3375 19.5414 40.2674 19.5414C35.1973 19.5414 31.0872 23.6515 31.0872 28.7216C31.0872 33.7917 35.1973 37.9018 40.2674 37.9018Z" fill="white"/>
</svg>
